<?xml version="1.0" standalone="no"?>
<!DOCTYPE svg PUBLIC "-//W3C//DTD SVG 20010904//EN"
 "http://www.w3.org/TR/2001/REC-SVG-20010904/DTD/svg10.dtd">
<svg version="1.0" xmlns="http://www.w3.org/2000/svg"
 width="331.000000pt" height="287.000000pt" viewBox="0 0 331.000000 287.000000"
 preserveAspectRatio="xMidYMid meet">

<g transform="translate(0.000000,287.000000) scale(0.100000,-0.100000)"
fill="#000000" stroke="none">
<path d="M685 2496 c-122 -57 -176 -191 -124 -306 43 -96 117 -144 219 -144
138 0 234 97 234 234 0 175 -174 289 -329 216z"/>
<path d="M1535 2496 c-122 -57 -176 -191 -124 -306 43 -96 117 -144 219 -144
138 0 234 97 234 234 0 175 -174 289 -329 216z"/>
<path d="M2345 2486 c-122 -57 -176 -191 -124 -306 43 -96 117 -144 219 -144
138 0 234 97 234 234 0 175 -174 289 -329 216z"/>
<path d="M675 1716 c-122 -57 -176 -191 -124 -306 43 -96 117 -144 219 -144
138 0 234 97 234 234 0 175 -174 289 -329 216z"/>
<path d="M1525 1706 c-122 -57 -176 -191 -124 -306 43 -96 117 -144 219 -144
138 0 234 97 234 234 0 175 -174 289 -329 216z"/>
<path d="M2335 1706 c-122 -57 -176 -191 -124 -306 43 -96 117 -144 219 -144
138 0 234 97 234 234 0 175 -174 289 -329 216z"/>
<path d="M2345 946 c-122 -57 -176 -191 -124 -306 43 -96 117 -144 219 -144
138 0 234 97 234 234 0 175 -174 289 -329 216z"/>
<path d="M675 936 c-122 -57 -176 -191 -124 -306 43 -96 117 -144 219 -144
138 0 234 97 234 234 0 175 -174 289 -329 216z"/>
<path d="M1535 936 c-122 -57 -176 -191 -124 -306 43 -96 117 -144 219 -144
138 0 234 97 234 234 0 175 -174 289 -329 216z"/>
</g>
</svg>
